<svg viewBox="0 0 1024 1176.463" xmlns="http://www.w3.org/2000/svg"><path d="M811.114 384.036v77.98c0 3.2-2 4.4-6.4 4.4-1.883-.074-4.094-.116-6.315-.116-25.51 0-49.734 5.49-71.56 15.354l1.096-.443c-7.994 3.657-14.773 8.644-20.35 14.75l-.044.047v203.94c0 4-1.6 5.6-5.2 5.6H623.57c-.255.04-.55.065-.848.065-2.834 0-5.175-2.104-5.548-4.836l-.003-.03V477.61l-.4-29.994-.8-31.19c0-9.198-.8-17.996-1.6-27.193-.027-.172-.042-.37-.042-.572 0-1.794 1.183-3.313 2.812-3.818l.028-.008h71.203c3.886 0 7.138 2.71 7.968 6.345l.01.054c3.306 10.517 5.21 22.61 5.21 35.15 0 .577-.003 1.152-.01 1.727v-.086c12.035-13.84 26.335-25.333 42.388-33.996l.8-.394c17.347-9.814 38.097-15.597 60.197-15.597.206 0 .41 0 .617.002h-.032c.196-.028.422-.044.65-.044 2.56 0 4.67 1.933 4.946 4.42l.002.02zM538.392 510c-15.998 22.08-37.92 38.972-63.437 48.478l-.947.31c-24.787 8.675-53.364 13.686-83.11 13.686-2.414 0-4.82-.033-7.218-.1l.353.01-19.994-.4-17.193-.4v128.363c.044.244.07.524.07.81 0 2.534-1.965 4.61-4.453 4.788H264.87c-3.2 0-4.8-1.6-4.8-5.198V288.864c0-2.8 1.2-4.4 4-4.4l22.394-.4 30.392-.8 34.79-.8 36.39-.4c2.012-.062 4.378-.097 6.753-.097 27.07 0 53.07 4.575 77.272 12.993l-1.65-.5c20.914 7.227 38.82 18.435 53.618 32.823l-.033-.032c12.546 12.586 22.476 27.786 28.9 44.713l.292.875c5.793 15.46 9.162 33.324 9.196 51.97v.016c.073 1.71.115 3.715.115 5.73 0 29.618-9.005 57.132-24.43 79.953l.323-.506zm283.52-465.866H202.09c-93.862 0-169.952 76.09-169.952 169.95V810.057c0 93.783 76.026 169.81 169.81 169.81h620.107c93.783 0 169.81-76.027 169.81-169.81v-.15.007-595.828-.143c0-93.783-76.027-169.81-169.81-169.81h-.15.007zM438.022 368.84c-12.676-5.115-27.374-8.082-42.766-8.082-1.555 0-3.103.03-4.643.09l.222-.007q-21.8-.454-43.584.8v134.362l15.597.8h21.371c16.37 0 32.127-2.634 46.867-7.5l-1.056.302c13.16-3.948 24.29-11.328 32.715-21.105l.075-.09c7.814-10.24 12.52-23.214 12.52-37.29 0-1.37-.046-2.732-.134-4.082l.01.184c.097-1.256.152-2.72.152-4.198 0-24.603-15.323-45.627-36.946-54.05l-.395-.135z"/></svg>